<?xml version="1.0" encoding="UTF-8" standalone="no"?>
<!-- Created with Inkscape (http://www.inkscape.org/) -->

<svg
   version="1.1"
   id="svg2"
   xml:space="preserve"
   width="5470"
   height="3743.2268"
   viewBox="0 0 5470 3743.2268"
   sodipodi:docname="programmer.eps"
   xmlns:inkscape="http://www.inkscape.org/namespaces/inkscape"
   xmlns:sodipodi="http://sodipodi.sourceforge.net/DTD/sodipodi-0.dtd"
   xmlns="http://www.w3.org/2000/svg"
   xmlns:svg="http://www.w3.org/2000/svg"><defs
     id="defs6" /><sodipodi:namedview
     id="namedview4"
     pagecolor="#ffffff"
     bordercolor="#666666"
     borderopacity="1.0"
     inkscape:pageshadow="2"
     inkscape:pageopacity="0.0"
     inkscape:pagecheckerboard="0" /><g
     id="g8"
     inkscape:groupmode="layer"
     inkscape:label="ink_ext_XXXXXX"
     transform="matrix(1.3333333,0,0,-1.3333333,0,3743.2267)"><g
       id="g10"
       transform="scale(0.1)"><path
         d="M 41025,0 H 0 V 28074.2 H 41025 V 0"
         style="fill:#ffffff;fill-opacity:1;fill-rule:nonzero;stroke:none"
         id="path12" /><path
         d="m 22336,11862 h -1707.5 l -269.3,1262.5 h 1707.5 L 22336,11862"
         style="fill:#f88bac;fill-opacity:1;fill-rule:nonzero;stroke:none"
         id="path14" /><path
         d="m 22278.3,11862 h -1707.5 l -269.3,1262.5 H 22009 l 269.3,-1262.5"
         style="fill:#beb2bd;fill-opacity:1;fill-rule:nonzero;stroke:none"
         id="path16" /><path
         d="m 22121.1,12598.3 h -1707.5 l -112.1,526.2 H 22009 l 112.1,-526.2"
         style="fill:#030028;fill-opacity:1;fill-rule:nonzero;stroke:none"
         id="path18" /><path
         d="m 22624.6,11862 h -2842.4 c -144.9,0 -262.4,-117.5 -262.4,-262.4 v 0 H 22887 v 0 c 0,144.9 -117.5,262.4 -262.4,262.4"
         style="fill:#cfc6ce;fill-opacity:1;fill-rule:nonzero;stroke:none"
         id="path20" /><path
         d="m 16553.9,14039.5 -112,-701.1 c 4.1,-81.5 89.9,-237.4 271.7,-237.4 h 7590.1 c 181.8,0 360.5,147.4 399.2,329.3 l 129.5,609.2 h -8278.5"
         style="fill:#beb2bd;fill-opacity:1;fill-rule:nonzero;stroke:none"
         id="path22" /><path
         d="m 24845.1,14099.3 851.7,4006.9 c 40.4,219.4 -50.6,339.1 -141.2,419.4 l -7616.5,59.5 c -181.8,0 -360.6,-147.4 -399.2,-329.2 l -939.8,-4421.6 v 0 l -73.2,-344.2 c -38.6,-181.8 77.4,-329.2 259.3,-329.2 h 7530.2 c 181.8,0 360.5,147.4 399.2,329.2 l 129.5,609.2 v 0"
         style="fill:#beb2bd;fill-opacity:1;fill-rule:nonzero;stroke:none"
         id="path24" /><path
         d="m 25555.6,18525.6 -2120,16.6 993.5,-5191.4 142.1,-141.1 c 86.9,60.4 122.5,177.4 144.4,280.4 l 129.5,609.2 851.7,4006.9 c 40.4,219.4 -50.6,339.1 -141.2,419.4"
         style="fill:#f88bac;fill-opacity:1;fill-rule:nonzero;stroke:none"
         id="path26" /><path
         d="m 16804.5,13669.7 c -90.9,0 -148.9,73.7 -129.6,164.6 l 939.8,4421.6 c 19.3,90.9 108.7,164.6 199.6,164.6 h 7530.3 c 90.9,0 148.9,-73.7 129.6,-164.6 l -939.8,-4421.6 c -19.4,-90.9 -108.7,-164.6 -199.7,-164.6 h -7530.2"
         style="fill:#ffffff;fill-opacity:1;fill-rule:nonzero;stroke:none"
         id="path28" /><path
         d="m 25379.5,18585.1 h -7530.2 c -181.8,0 -360.5,-147.4 -399.2,-329.2 l -939.8,-4421.6 c -38.7,-181.8 77.4,-329.2 259.2,-329.2 h 7530.3 c 181.8,0 360.5,147.4 399.2,329.2 l 939.8,4421.6 c 38.6,181.8 -77.4,329.2 -259.3,329.2 z m -69.9,-329.2 -939.9,-4421.6 h -7530.2 l 939.8,4421.6 h 7530.3"
         style="fill:#030028;fill-opacity:1;fill-rule:nonzero;stroke:none"
         id="path30" /><path
         d="m 24699.8,16844.7 c -630.5,204.2 -1299.2,332.9 -1986.4,397.4 -1430.1,134 -2932.2,-4.5 -4428.9,-262.6 -270.2,-46.6 -543.9,-98.3 -813.4,-173.9 l -631.6,-2971.3 h 7530.2 l 617.3,2904.3 c -93.1,38.4 -188.6,74.1 -287.2,106.1"
         style="fill:#fbb9cc;fill-opacity:1;fill-rule:nonzero;stroke:none"
         id="path32" /><path
         d="m 24870.8,16191.6 c -684.8,261.5 -1506.1,283.9 -2305.9,46.3 -604.9,-179.7 -1200,-499.9 -1805.6,-573.9 -687.8,-83.9 -1297.5,159.1 -1900.7,357.5 -442.4,145.4 -918.1,271.3 -1427.5,221.8 -27.2,-2.6 -54.4,-5.9 -81.5,-9.2 l -510.1,-2399.8 h 7530.2 l 501.1,2357.3"
         style="fill:#f88bac;fill-opacity:1;fill-rule:nonzero;stroke:none"
         id="path34" /><path
         d="m 24889.2,16278.3 c -665.3,-76.6 -1343.5,-287.6 -1976.9,-620 -448.7,-235.5 -881.9,-532.9 -1352.5,-676.7 -634.1,-193.7 -1254.1,-85.7 -1853.5,0.2 -726.8,104.1 -1347.2,67.7 -2103.6,-239.8 -215,-87.4 -427.5,-188 -634.4,-301.9 l -128.8,-605.8 h 7530.2 l 519.5,2444"
         style="fill:#f45183;fill-opacity:1;fill-rule:nonzero;stroke:none"
         id="path36" /><path
         d="m 16566.6,14099.3 -129.5,-609.2 c -38.6,-181.8 77.4,-329.2 259.3,-329.2 h 7530.2 c 181.8,0 360.6,147.4 399.2,329.2 l 129.5,609.2 h -8188.7"
         style="fill:#cfc6ce;fill-opacity:1;fill-rule:nonzero;stroke:none"
         id="path38" /><path
         d="m 27922.8,11214.7 h -5413.2 v 384.9 h 5413.2 v -384.9"
         style="fill:#f88bac;fill-opacity:1;fill-rule:nonzero;stroke:none"
         id="path40" /><path
         d="M 23972.8,11214.7 H 9174.19 v 384.9 H 23972.8 v -384.9"
         style="fill:#030028;fill-opacity:1;fill-rule:nonzero;stroke:none"
         id="path42" /><path
         d="m 20945.5,15380.1 h -3246.8 c -90.2,0 -147.8,73.2 -128.6,163.4 l 473.1,2225.8 c 19.1,90.2 107.8,163.3 198.1,163.3 H 21488 c 90.2,0 147.8,-73.1 128.7,-163.3 l -473.1,-2225.8 c -19.2,-90.2 -107.9,-163.4 -198.1,-163.4"
         style="fill:#f0ebf1;fill-opacity:1;fill-rule:nonzero;stroke:none"
         id="path44" /><path
         d="m 18013.8,17631.1 29.4,138.2 c 19.1,90.2 107.8,163.3 198.1,163.3 H 21488 c 90.2,0 147.8,-73.1 128.7,-163.3 l -29.4,-138.2 h -3573.5"
         style="fill:#cfc6ce;fill-opacity:1;fill-rule:nonzero;stroke:none"
         id="path46" /><path
         d="m 18341.1,17781.8 c -7.8,-36.3 -43.5,-65.8 -79.8,-65.8 -36.4,0 -59.6,29.5 -51.8,65.8 7.7,36.4 43.4,65.8 79.8,65.8 36.3,0 59.5,-29.4 51.8,-65.8"
         style="fill:#f0ebf1;fill-opacity:1;fill-rule:nonzero;stroke:none"
         id="path48" /><path
         d="m 18552.1,17781.8 c -7.7,-36.3 -43.5,-65.8 -79.8,-65.8 -36.3,0 -59.5,29.5 -51.8,65.8 7.7,36.4 43.4,65.8 79.8,65.8 36.3,0 59.5,-29.4 51.8,-65.8"
         style="fill:#f0ebf1;fill-opacity:1;fill-rule:nonzero;stroke:none"
         id="path50" /><path
         d="m 18763.1,17781.8 c -7.7,-36.3 -43.4,-65.8 -79.8,-65.8 -36.3,0 -59.5,29.5 -51.8,65.8 7.7,36.4 43.4,65.8 79.8,65.8 36.3,0 59.5,-29.4 51.8,-65.8"
         style="fill:#f0ebf1;fill-opacity:1;fill-rule:nonzero;stroke:none"
         id="path52" /><path
         d="m 20833.5,15619.8 h -2952 l 363.2,1708.5 h 2951.9 l -363.1,-1708.5"
         style="fill:#ffffff;fill-opacity:1;fill-rule:nonzero;stroke:none"
         id="path54" /><path
         d="m 19925.9,16474.1 h -1717.6 l 148.3,697.7 h 1717.6 l -148.3,-697.7"
         style="fill:#f45183;fill-opacity:1;fill-rule:nonzero;stroke:none"
         id="path56" /><path
         d="m 20680.3,17028.8 h -482.2 l 30.4,143 h 482.2 l -30.4,-143"
         style="fill:#fbb9cc;fill-opacity:1;fill-rule:nonzero;stroke:none"
         id="path58" /><path
         d="m 20913.3,16751.5 h -774.1 l 30.4,142.9 h 774.1 l -30.4,-142.9"
         style="fill:#fbb9cc;fill-opacity:1;fill-rule:nonzero;stroke:none"
         id="path60" /><path
         d="m 20715.1,16474.1 h -634.9 l 30.4,142.9 h 634.9 l -30.4,-142.9"
         style="fill:#fbb9cc;fill-opacity:1;fill-rule:nonzero;stroke:none"
         id="path62" /><path
         d="m 20534.2,15989.1 c -21.8,-102.5 -122.5,-185.5 -224.9,-185.5 -102.5,0 -167.9,83 -146.1,185.5 21.8,102.4 122.5,185.5 224.9,185.5 102.5,0 167.9,-83.1 146.1,-185.5"
         style="fill:#5d47ff;fill-opacity:1;fill-rule:nonzero;stroke:none"
         id="path64" /><path
         d="m 18825.4,15619.8 h -798.7 l 117.9,554.8 h 798.7 l -117.9,-554.8"
         style="fill:#8e7eff;fill-opacity:1;fill-rule:nonzero;stroke:none"
         id="path66" /><path
         d="m 19744.3,15619.8 h -798.6 l 117.9,554.8 h 798.7 l -118,-554.8"
         style="fill:#8e7eff;fill-opacity:1;fill-rule:nonzero;stroke:none"
         id="path68" /><path
         d="m 24000,14430.5 h -2491 c -90.2,0 -147.8,73.2 -128.7,163.4 l 473.1,2225.8 c 19.2,90.2 107.9,163.3 198.1,163.3 h 2491 c 90.2,0 147.8,-73.1 128.7,-163.3 l -473.1,-2225.8 c -19.2,-90.2 -107.9,-163.4 -198.1,-163.4"
         style="fill:#f0ebf1;fill-opacity:1;fill-rule:nonzero;stroke:none"
         id="path70" /><path
         d="m 21824.1,16681.4 29.3,138.3 c 19.2,90.2 107.9,163.3 198.1,163.3 h 2491 c 90.2,0 147.8,-73.1 128.7,-163.3 l -29.4,-138.3 h -2817.7"
         style="fill:#cfc6ce;fill-opacity:1;fill-rule:nonzero;stroke:none"
         id="path72" /><path
         d="m 22151.3,16832.2 c -7.7,-36.3 -43.4,-65.8 -79.8,-65.8 -36.3,0 -59.5,29.5 -51.8,65.8 7.8,36.4 43.5,65.8 79.8,65.8 36.4,0 59.6,-29.4 51.8,-65.8"
         style="fill:#f0ebf1;fill-opacity:1;fill-rule:nonzero;stroke:none"
         id="path74" /><path
         d="m 22362.3,16832.2 c -7.7,-36.3 -43.4,-65.8 -79.7,-65.8 -36.4,0 -59.6,29.5 -51.9,65.8 7.8,36.4 43.5,65.8 79.8,65.8 36.4,0 59.6,-29.4 51.8,-65.8"
         style="fill:#f0ebf1;fill-opacity:1;fill-rule:nonzero;stroke:none"
         id="path76" /><path
         d="m 22573.4,16832.2 c -7.8,-36.3 -43.5,-65.8 -79.8,-65.8 -36.4,0 -59.6,29.5 -51.8,65.8 7.7,36.4 43.4,65.8 79.7,65.8 36.4,0 59.6,-29.4 51.9,-65.8"
         style="fill:#f0ebf1;fill-opacity:1;fill-rule:nonzero;stroke:none"
         id="path78" /><path
         d="m 24701.5,14670.2 h -1328.2 l 363.2,1708.5 h 930.9 l 319.6,-357.7 -285.5,-1350.8"
         style="fill:#ffffff;fill-opacity:1;fill-rule:nonzero;stroke:none"
         id="path80" /><path
         d="m 23195.5,14670.2 h -1575.2 l 363.2,1708.5 h 1575.1 l -363.1,-1708.5"
         style="fill:#ffffff;fill-opacity:1;fill-rule:nonzero;stroke:none"
         id="path82" /><path
         d="m 26913.6,20971.1 -39.2,93.1 c 130.2,54.9 263.9,89.6 397.2,103 l 10.1,-100.6 c -123.3,-12.3 -247.1,-44.5 -368.1,-95.5 z m 924.3,-2.6 c -107.6,56.9 -228.6,90.8 -359.6,100.8 l 7.7,100.7 c 144.9,-11.1 279.1,-48.8 399.1,-112.1 z m -1402.9,-323.7 -71.8,71 c 96.5,97.7 204.7,182.5 321.5,252.2 l 51.8,-86.7 c -109.5,-65.4 -210.9,-144.9 -301.5,-236.5 z m 1773.1,-89.4 c -46.9,118.3 -118,220.4 -211.3,303.3 l 67.1,75.6 c 105.3,-93.6 185.4,-208.5 238.1,-341.7 z m -2090,-394 -94.2,36.5 c 48.5,125.2 115.9,245.5 200.3,357.2 l 80.7,-60.8 c -78.8,-104.4 -141.6,-216.4 -186.8,-332.9 z m 2226.1,-190.5 -99.4,18 c 0.3,1.5 0.6,2.9 0.9,4.4 16.1,75.5 24.3,152.2 24.3,226.6 0,50.2 -3.8,100.1 -11.2,148.2 l 99.8,15.5 c 8.3,-53.2 12.5,-108.3 12.5,-163.7 0,-81.5 -9.1,-165.2 -26.9,-249 z m -2396.5,-390.3 c -8.1,52.7 -12.3,107.3 -12.3,162.3 0,81.4 9.1,165.2 26.9,249 l 0.4,1.9 98.5,-22.5 c -16.5,-77.4 -24.7,-154 -24.7,-228.4 0,-49.8 3.7,-99.3 11,-146.9 z m 2133.7,-174.1 -80.6,60.9 c 78.9,104.3 141.8,216.2 187.1,332.8 l 94.2,-36.6 c -48.7,-125.3 -116.2,-245.4 -200.7,-357.1 z m -1839.8,-377.1 c -105.2,93.7 -185.1,208.8 -237.7,342 l 94,37.1 c 46.7,-118.4 117.7,-220.6 210.9,-303.7 z m 1378.9,-35.4 -51.6,86.8 c 109.5,65.2 211,144.7 301.6,236.2 l 71.8,-71 c -96.6,-97.7 -204.8,-182.4 -321.8,-252 z m -587,-198.6 -10,100.5 c 123.3,12.3 247.2,44.3 368.1,95.2 l 39.2,-93.1 c -130.2,-54.8 -263.9,-89.3 -397.3,-102.6 z m -214.4,-2.6 c -144.9,11.3 -279.1,49.2 -398.9,112.7 l 47.2,89.3 c 107.6,-57 228.5,-91.1 359.5,-101.3 l -7.8,-100.7"
         style="fill:#030028;fill-opacity:1;fill-rule:nonzero;stroke:none"
         id="path84" /><path
         d="m 27634.3,21122.9 c 28,131.7 -56.1,238.4 -187.7,238.4 -131.7,0 -261.1,-106.7 -289.1,-238.4 -28,-131.6 56.1,-238.4 187.7,-238.4 131.7,0 261.1,106.8 289.1,238.4"
         style="fill:#ffffff;fill-opacity:1;fill-rule:nonzero;stroke:none"
         id="path86" /><path
         d="m 27446.6,21274.7 c -91.2,0 -184.8,-77.7 -204.4,-169.8 -8.2,-38.6 -1.8,-73.4 18.1,-97.9 18.7,-23.1 48.9,-35.9 84.9,-35.9 91.2,0 184.8,77.8 204.4,169.8 v 0 c 8.2,38.7 1.8,73.4 -18.1,98 -18.7,23.1 -48.9,35.8 -84.9,35.8 z m -101.4,-476.8 c -89.3,0 -167.3,35.6 -219.5,100.1 -52.6,65 -71.9,153.5 -52.9,242.9 36.6,172.2 200.8,307 373.8,307 89.3,0 167.3,-35.5 219.5,-100.1 52.6,-64.9 71.9,-153.5 52.9,-242.9 -36.6,-172.1 -200.8,-307 -373.8,-307"
         style="fill:#f45183;fill-opacity:1;fill-rule:nonzero;stroke:none"
         id="path88" /><path
         d="m 28537.4,21122.9 h -903.1"
         style="fill:#ffffff;fill-opacity:1;fill-rule:nonzero;stroke:none"
         id="path90" /><path
         d="m 28537.4,21072.4 h -903.1 v 101 h 903.1 v -101"
         style="fill:#f45183;fill-opacity:1;fill-rule:nonzero;stroke:none"
         id="path92" /><path
         d="m 28677.4,21122.9 c 16.4,77.3 -32.9,140 -110.2,140 -77.3,0 -153.3,-62.7 -169.7,-140 -16.4,-77.3 32.9,-139.9 110.2,-139.9 77.3,0 153.3,62.6 169.7,139.9"
         style="fill:#5d47ff;fill-opacity:1;fill-rule:nonzero;stroke:none"
         id="path94" /><path
         d="m 26254.3,21122.9 h 903.2"
         style="fill:#ffffff;fill-opacity:1;fill-rule:nonzero;stroke:none"
         id="path96" /><path
         d="m 27157.5,21072.4 h -903.2 v 101 h 903.2 v -101"
         style="fill:#f45183;fill-opacity:1;fill-rule:nonzero;stroke:none"
         id="path98" /><path
         d="m 26114.4,21122.9 c 16.4,77.3 92.4,140 169.7,140 77.3,0 126.6,-62.7 110.2,-140 -16.5,-77.3 -92.4,-139.9 -169.7,-139.9 -77.3,0 -126.6,62.6 -110.2,139.9"
         style="fill:#5d47ff;fill-opacity:1;fill-rule:nonzero;stroke:none"
         id="path100" /><path
         d="m 26155.9,17314.2 h -2118.2 c -78.6,0 -128.8,63.8 -112.1,142.4 l 480.9,2262.5 c 16.7,78.6 94,142.4 172.7,142.4 h 2118.1 c 78.7,0 128.9,-63.8 112.1,-142.4 l -480.9,-2262.5 c -16.7,-78.6 -94,-142.4 -172.6,-142.4"
         style="fill:#f0ebf1;fill-opacity:1;fill-rule:nonzero;stroke:none"
         id="path102" /><path
         d="m 24380.9,19598.6 25.6,120.5 c 16.7,78.6 94,142.4 172.7,142.4 h 2118.1 c 78.7,0 128.9,-63.8 112.1,-142.4 l -25.6,-120.5 h -2402.9"
         style="fill:#030028;fill-opacity:1;fill-rule:nonzero;stroke:none"
         id="path104" /><path
         d="m 24666.2,19730.1 c -6.8,-31.7 -37.9,-57.4 -69.6,-57.4 -31.7,0 -51.9,25.7 -45.1,57.4 6.7,31.6 37.8,57.3 69.5,57.3 31.7,0 51.9,-25.7 45.2,-57.3"
         style="fill:#beb2bd;fill-opacity:1;fill-rule:nonzero;stroke:none"
         id="path106" /><path
         d="m 24850.1,19730.1 c -6.7,-31.7 -37.9,-57.4 -69.5,-57.4 -31.7,0 -51.9,25.7 -45.2,57.4 6.7,31.6 37.9,57.3 69.5,57.3 31.7,0 51.9,-25.7 45.2,-57.3"
         style="fill:#beb2bd;fill-opacity:1;fill-rule:nonzero;stroke:none"
         id="path108" /><path
         d="m 25034,19730.1 c -6.7,-31.7 -37.8,-57.4 -69.5,-57.4 -31.7,0 -51.9,25.7 -45.2,57.4 6.8,31.6 37.9,57.3 69.6,57.3 31.7,0 51.9,-25.7 45.1,-57.3"
         style="fill:#beb2bd;fill-opacity:1;fill-rule:nonzero;stroke:none"
         id="path110" /><path
         d="m 25710.4,19196.2 h -1215.1 l 28.5,133.9 h 1215.1 l -28.5,-133.9"
         style="fill:#5d47ff;fill-opacity:1;fill-rule:nonzero;stroke:none"
         id="path112" /><path
         d="M 25172.1,17844.5 H 24208 l 28.5,134 h 964 l -28.4,-134"
         style="fill:#8e7eff;fill-opacity:1;fill-rule:nonzero;stroke:none"
         id="path114" /><path
         d="m 25090.8,18114.9 h -686.6 l 28.5,133.9 h 686.6 l -28.5,-133.9"
         style="fill:#f45183;fill-opacity:1;fill-rule:nonzero;stroke:none"
         id="path116" /><path
         d="m 25263.2,18925.8 h -686.6 l 28.4,134 h 686.7 l -28.5,-134"
         style="fill:#f45183;fill-opacity:1;fill-rule:nonzero;stroke:none"
         id="path118" /><path
         d="m 25700.1,18655.5 h -1038.6 l 28.5,133.9 h 1038.6 l -28.5,-133.9"
         style="fill:#8e7eff;fill-opacity:1;fill-rule:nonzero;stroke:none"
         id="path120" /><path
         d="m 25818,18385.2 h -1214 l 28.5,133.9 h 1214 l -28.5,-133.9"
         style="fill:#5d47ff;fill-opacity:1;fill-rule:nonzero;stroke:none"
         id="path122" /><path
         d="m 24810.8,17574.2 h -660.2 l 28.4,134 h 660.2 l -28.4,-134"
         style="fill:#5d47ff;fill-opacity:1;fill-rule:nonzero;stroke:none"
         id="path124" /><path
         d="m 23069.3,19744.3 h -1495.4 c -66,0 -108.1,53.4 -94,119.4 l 186.4,877.1 c 14,65.9 78.8,119.4 144.8,119.4 h 1495.4 c 65.9,0 108,-53.5 94,-119.4 l -186.4,-877.1 c -14,-66 -78.9,-119.4 -144.8,-119.4"
         style="fill:#cfc6ce;fill-opacity:1;fill-rule:nonzero;stroke:none"
         id="path126" /><path
         d="m 22946.3,19891 h -1533.6 c -67.6,0 -110.8,54.8 -96.4,122.5 l 191.2,899.5 c 14.3,67.6 80.8,122.5 148.5,122.5 h 1533.6 c 67.7,0 110.9,-54.9 96.5,-122.5 l -191.2,-899.5 c -14.4,-67.7 -80.9,-122.5 -148.6,-122.5"
         style="fill:#f0ebf1;fill-opacity:1;fill-rule:nonzero;stroke:none"
         id="path128" /><path
         d="m 23257,21011.5 -598.2,696 c -42.1,48.9 -123.4,48.9 -186.3,0 l -894.1,-696"
         style="fill:#f0ebf1;fill-opacity:1;fill-rule:nonzero;stroke:none"
         id="path130" /><path
         d="m 22068.9,19312.6 c -391.8,0 -730.3,151.6 -953.3,426.9 -229.7,283.7 -309,662 -223.3,1065.3 149.9,705.1 780.7,1311.8 1500,1442.4 93.9,17.1 188.5,25.7 281.3,25.7 v -115.5 c -85.9,0 -173.6,-8 -260.7,-23.8 -675.1,-122.6 -1267.1,-691.6 -1407.7,-1352.8 -78.3,-368.6 -7.2,-712.6 200.2,-968.7 200.5,-247.6 507.2,-384 863.5,-384 758.5,0 1506.9,617.5 1668.3,1376.7 77.1,362.8 9,703.1 -191.7,958 l 90.7,71.5 c 222.3,-282.4 298.3,-656.6 213.9,-1053.5 -172.1,-809.6 -971.1,-1468.2 -1781.2,-1468.2"
         style="fill:#fbb9cc;fill-opacity:1;fill-rule:nonzero;stroke:none"
         id="path132" /><path
         d="m 23601,22086.4 c -49.1,-230.8 -276,-418 -506.9,-418 -230.9,0 -378.2,187.2 -329.2,418 49.1,230.9 276,418 506.9,418 230.9,0 378.2,-187.1 329.2,-418"
         style="fill:#f45183;fill-opacity:1;fill-rule:nonzero;stroke:none"
         id="path134" /><path
         d="m 23126.1,22076.7 c -9.6,-45.2 -15.4,-87.2 33.5,-87.2 31.4,0 50.9,21.3 57.7,53.3 7,32.6 -5,55.8 -37,55.8 -17.6,0 -36.8,-8.1 -54.2,-21.9 z m 176.1,153 c -9.3,6.2 -26.4,14.4 -54,14.4 -68.3,0 -91,-50.8 -94.8,-68.4 13.1,8.2 36.5,18.2 72.2,18.2 72.8,0 118.8,-48.9 97.9,-147.3 -19.5,-91.6 -94.9,-157.4 -185.8,-157.4 -124.8,0 -142.5,82.1 -116.7,203.2 26.6,125.4 93,252 241,252 53.3,0 84.2,-16.9 99.5,-27.6 l -59.3,-87.1"
         style="fill:#ffffff;fill-opacity:1;fill-rule:nonzero;stroke:none"
         id="path136" /><path
         d="m 21545.4,20984 h 1733 l -989.8,-580.1 z"
         style="fill:#beb2bd;fill-opacity:1;fill-rule:nonzero;stroke:none"
         id="path138" /><path
         d="m 23004.5,20923.4 -196.7,249.8 h -961.3 l -78.6,-369.7 520.7,-399.6 690.4,399.6 25.5,119.9"
         style="fill:#ffffff;fill-opacity:1;fill-rule:nonzero;stroke:none"
         id="path140" /><path
         d="m 22754.7,20923.4 h 249.8 l -294.2,-63.2 97.5,313 -53.1,-249.8"
         style="fill:#f0ebf1;fill-opacity:1;fill-rule:nonzero;stroke:none"
         id="path142" /><path
         d="m 22359.5,20732.5 c 24.3,0 47.9,19 54.5,49.8 5.4,25.5 -6.9,48.7 -33.6,48.7 -24.9,0 -48.2,-20.2 -54.2,-48.7 -6.1,-28.4 7.2,-49.8 33.3,-49.8 z m -25.1,-67.6 c -68.2,0 -100.4,49.2 -86.1,116.8 14.3,67.1 69.4,116.9 132.9,116.9 32.6,0 47.4,-14.2 51.8,-18.4 l 3.2,14.8 h 72.4 l -28.8,-135.2 c -4.5,-21.4 0.9,-32.1 19.9,-32.1 24.3,0 45.6,30.3 56.3,80.7 22.6,106.2 -32.8,158.4 -143.1,158.4 -111,0 -198.2,-78.3 -220.3,-182.1 -23.3,-109.8 34.8,-179.8 151.7,-179.8 42.7,0 86.5,13.7 119.2,30.9 l 21.2,-51 c -41.6,-25.5 -93.3,-42.7 -153.8,-42.7 -157.8,0 -242,97.9 -211.8,240.2 31.4,147.8 165.2,246.8 308.2,246.8 151.9,0 226,-89.6 198.9,-217.1 -19.1,-89.6 -75.1,-146.6 -145.7,-146.6 -33.2,0 -56.8,14.9 -64.4,37.4 -9.4,-10.7 -36.6,-37.9 -81.7,-37.9"
         style="fill:#5d47ff;fill-opacity:1;fill-rule:nonzero;stroke:none"
         id="path144" /><path
         d="m 23503,22605.1 -105.4,47.2 217.5,485 105.3,-47.3 -217.4,-484.9"
         style="fill:#5d47ff;fill-opacity:1;fill-rule:nonzero;stroke:none"
         id="path146" /><path
         d="m 23126.6,22612.2 -19.8,368.8 115.3,6.2 19.8,-368.8 -115.3,-6.2"
         style="fill:#5d47ff;fill-opacity:1;fill-rule:nonzero;stroke:none"
         id="path148" /><path
         d="m 23738.3,22459.8 -73.2,89.3 331.6,271.5 73.2,-89.3 -331.6,-271.5"
         style="fill:#5d47ff;fill-opacity:1;fill-rule:nonzero;stroke:none"
         id="path150" /><path
         d="m 23792.7,22210.6 -23.2,113.1 208.5,42.7 23.2,-113.1 -208.5,-42.7"
         style="fill:#5d47ff;fill-opacity:1;fill-rule:nonzero;stroke:none"
         id="path152" /><path
         d="m 27009.7,10935.7 h -2468 v 274.2 h 2468 v -274.2"
         style="fill:#030028;fill-opacity:1;fill-rule:nonzero;stroke:none"
         id="path154" /><path
         d="m 23993.2,10291 h 606.2 l -144.3,644.7 h -317.6 l -144.3,-644.7"
         style="fill:#f88bac;fill-opacity:1;fill-rule:nonzero;stroke:none"
         id="path156" /><path
         d="m 27120.3,10935.7 h -2665.2 l 144.3,-644.7 h 2694.1 l -173.2,644.7"
         style="fill:#030028;fill-opacity:1;fill-rule:nonzero;stroke:none"
         id="path158" /><path
         d="m 27070.2,4960.5 h -715.6 l -874.3,5330.5 h 715.6 l 874.3,-5330.5"
         style="fill:#030028;fill-opacity:1;fill-rule:nonzero;stroke:none"
         id="path160" /><path
         d="m 25480.3,10291 874.3,-5330.5 h 268.2 l -874.3,5330.5 h -268.2"
         style="fill:#f88bac;fill-opacity:1;fill-rule:nonzero;stroke:none"
         id="path162" /><path
         d="M 23962.7,4960.5 H 23247 l 1421,5330.5 h 715.7 l -1421,-5330.5"
         style="fill:#030028;fill-opacity:1;fill-rule:nonzero;stroke:none"
         id="path164" /><path
         d="M 24668,10291 23247,4960.5 h 268.3 l 1421,5330.5 H 24668"
         style="fill:#f88bac;fill-opacity:1;fill-rule:nonzero;stroke:none"
         id="path166" /><path
         d="m 13002,4960.5 h -715.7 L 11412,10291 h 715.7 L 13002,4960.5"
         style="fill:#030028;fill-opacity:1;fill-rule:nonzero;stroke:none"
         id="path168" /><path
         d="m 11412,10291 874.3,-5330.5 h 268.3 L 11680.3,10291 H 11412"
         style="fill:#f88bac;fill-opacity:1;fill-rule:nonzero;stroke:none"
         id="path170" /><path
         d="M 9894.43,4960.5 H 9178.76 L 10599.8,10291 h 715.6 L 9894.43,4960.5"
         style="fill:#030028;fill-opacity:1;fill-rule:nonzero;stroke:none"
         id="path172" /><path
         d="M 10599.8,10291 9178.76,4960.5 h 268.25 L 10868,10291 h -268.2"
         style="fill:#f88bac;fill-opacity:1;fill-rule:nonzero;stroke:none"
         id="path174" /><path
         d="m 21430.6,11930.9 h -778.8 v -331.3 h 778.8 v 331.3"
         style="fill:#030028;fill-opacity:1;fill-rule:nonzero;stroke:none"
         id="path176" /><path
         d="M 20698.6,11599.6 H 16865 c -180.4,0 -354.1,67.7 -486.9,189.7 l -1263.3,1293.7 1133.7,890.1 882.3,-965.7 c 176.4,-175.8 400.2,-296.5 644,-347.4 l 2086.6,-529.6 c 53.1,-13.5 109.1,-9 159.4,12.7 l 676.7,292.2 c 23.8,10.3 50.2,12.8 75.5,7.1 l 605.4,-135.9 c 40.4,-9.1 75.9,-33.1 99.3,-67.3 l 302.3,-441.8 c 22.9,-33.6 28.3,-76.1 14.3,-114.2 l -11.8,-32.1 c -11.3,-30.9 -40.8,-51.5 -73.7,-51.5 h -13.4 c -47,0 -90.3,25.3 -113.4,66.3 l -49.3,87.7 -32.9,-105.2 c -9,-29 -35.9,-48.8 -66.3,-48.8 h -26.7 c -51.4,0 -86.5,52.5 -66.4,99.9 5.7,13.5 8.6,25.8 9.5,34.8 12.6,120.3 -184.7,214.1 -271.3,137.1 -86.5,-76.9 -206.8,-271.8 -380,-271.8"
         style="fill:#ffa298;fill-opacity:1;fill-rule:nonzero;stroke:none"
         id="path178" /><path
         d="m 15630.2,12555.2 619.3,1416.7 -1,1.2 -1133.7,-890.1 515.4,-527.8"
         style="fill:#ff786e;fill-opacity:1;fill-rule:nonzero;stroke:none"
         id="path180" /><path
         d="m 14532.6,18634.1 c 54.2,42.5 108.3,84.8 162.5,127.3 5.4,4.2 11.3,9.4 11,16.3 -0.2,3.6 -2.1,6.8 -3.9,9.9 -12.6,20.8 -33.4,56.3 -45.9,77.1 -13,21.5 -23.2,31.3 -48.2,28.8"
         style="fill:#00066e;fill-opacity:1;fill-rule:nonzero;stroke:none"
         id="path182" /><path
         d="m 14598.3,17834.6 c 0,0 149.1,77 192.4,91.4 43.3,14.5 22.6,91.4 -258.1,553.3"
         style="fill:#ffa298;fill-opacity:1;fill-rule:nonzero;stroke:none"
         id="path184" /><path
         d="m 13488.4,17014.8 -63.6,-664.5 -1591.3,310.9 c 0,0 424.7,507.5 520.5,1108.5 -426.5,446.1 -948.4,1486.6 -106.3,2215 560.2,484.6 1889.5,346 2190,-373.3 l 218.6,-746.7 -91.1,-218.5 c 0,0 82,-710.3 91.1,-937.9 9.1,-227.6 -300.5,-874.1 -418.9,-865 -118.4,9.1 -749,171.5 -749,171.5"
         style="fill:#ffa298;fill-opacity:1;fill-rule:nonzero;stroke:none"
         id="path186" /><path
         d="m 13805.4,18095.9 c -47,-30.3 -69.8,-42.7 -122.1,-9.9 -36.7,23.1 -64,60.9 -82.9,99.3 -12,24.2 -20.4,50 -27.8,76 -25.1,88.3 -39,179.8 -41.5,271.6 -3.5,131.7 -3.7,248.5 57.4,370.1 l 122.6,99.8 c -266.6,41.3 -535,-42.8 -791.7,-125.9 -49.4,-16 -99.1,-32.1 -145.4,-55.7 -30.4,-15.4 -59,-34 -87.1,-53.3 -85.7,-59.4 -165.9,-127 -238,-202.4 -56.9,-59.4 -102.2,-142.4 -174.3,-184.4 -84,-49.1 -174.3,-87.3 -264.8,-125.3 101.6,-194.6 226.5,-363 344.2,-486.1 -95.8,-601 -520.5,-1108.5 -520.5,-1108.5 l 585.9,-114.5 c 83.9,134.1 140,304.7 190.1,454.4 66,197 123.1,411.6 128.1,619.2 120.2,-5.2 239.7,32.6 343.4,93.6 103.7,60.9 192.6,144.3 272.2,234.5 26.9,30.6 55.4,63.6 94.7,74.3 50.5,13.7 101.8,-13.3 151.5,-29.4 63.8,-20.7 137.2,-16.3 190.2,28.9 35.3,30.1 56.4,77.4 51.3,123.6 3.3,-21.4 -17.3,-38.1 -35.5,-49.9"
         style="fill:#ff786e;fill-opacity:1;fill-rule:nonzero;stroke:none"
         id="path188" /><path
         d="m 14028,16791 c -153.4,23.4 -395,83 -539.7,139.1 -9.5,3.6 -19.6,7.9 -24.8,16.6 -4.6,7.7 -4.5,17.3 -4.1,26.2 5.4,147.3 10.8,294.6 16.2,441.9 133.7,-136 291,-248.9 462.7,-331.9"
         style="fill:#ff786e;fill-opacity:1;fill-rule:nonzero;stroke:none"
         id="path190" /><path
         d="m 13967,17919.1 c -77.4,-252.3 -271.9,-439.1 -268.2,-703 1.5,-111.8 115.3,-296.6 202.2,-367 50.3,-40.8 115.3,-59.8 179.8,-66.8 96.9,-10.4 201.6,13.1 281.8,69.3 95.5,66.8 117.8,167 134.8,277.1 14.4,93.3 57.6,177.6 105.1,255.8 59.9,98.5 86.7,216.6 75.4,331.2 -1.6,15.9 -4.3,32.5 -14.4,44.8 -11.5,13.9 -30,19.3 -47.2,24.7 -86.3,27.1 -167.5,73.6 -227.9,140.9 -88,98 -90.7,214.6 -116.8,336.3 -27.7,122.8 -55.6,247.1 -52.3,373 5.2,202.6 90.2,393.6 173.7,578.3 43,95.1 99.5,236.4 51.3,338.4 -323.3,31.3 -658.3,-140.2 -958.7,-263.9 -218.6,-90 -443.7,-184.4 -608.5,-353.9 -125,-128.4 -206.8,-291.7 -286.6,-452.1 -46.3,-93.2 -93.1,-187.6 -115.2,-289.3 -22.1,-101.6 -17.2,-213.1 35.4,-302.9 148.6,-253.7 456.3,-128.9 633.2,11.7 197.8,157.3 335.2,392.3 365.1,644.2 8.1,68.5 9.1,138.7 31.3,204 37.9,111.1 154.5,184.6 270.2,144.8 124.1,-42.7 146.5,-180.1 142.7,-295.1 -1.3,-39 14,-76.3 26.1,-113.4 60.4,-185.1 44.1,-383.3 -12.3,-567.1"
         style="fill:#00066e;fill-opacity:1;fill-rule:nonzero;stroke:none"
         id="path192" /><path
         d="m 14424.9,19506.8 c 80.6,-20.1 174.6,18.1 241.9,60.4 183.3,115.1 179.4,416.3 85.9,586.5 -81.4,148.3 -268.2,229.2 -431.6,202.8 6.1,1 -81.6,162.5 -92.1,177.1 -230,320.3 -803.7,267.1 -1041.7,-10.1 -9,-10.4 -68.9,-109.4 -71.9,-109.2 -436.3,34.5 -1020.7,-105.8 -1260.7,-507.9 -288.4,-483.6 -182.7,-1186.9 53,-1667 77.8,-158.5 174.3,-313.7 316.6,-418.3 142.3,-104.6 338.7,-149.9 499.3,-76.4 200.6,91.7 285.8,328.3 328.6,544.6 42.8,216.3 70.3,451.4 218.4,614.8 167.9,185.2 433.6,228 664.7,304.7 128.9,42.8 234.7,97.8 344.2,177 123.1,89.1 -7.6,159.2 145.4,121"
         style="fill:#00066e;fill-opacity:1;fill-rule:nonzero;stroke:none"
         id="path194" /><path
         d="m 13677.9,18388.2 c -71.5,333.9 18,408.2 59.8,424.7 46.8,18.4 99.7,-4.9 131.7,-58.3 l 2.6,-5.1 c 1,-2.6 25.5,-65.3 -1.7,-134.2 l -67.1,26.5 c 14,35.5 5.4,69.4 2.5,78.7 -12.7,19.7 -29.5,30.1 -41.5,25.3 -22.9,-9 -70.2,-88.1 -15.8,-342.5 l -70.5,-15.1"
         style="fill:#ff786e;fill-opacity:1;fill-rule:nonzero;stroke:none"
         id="path196" /><path
         d="M 18422.4,7645 19298,4960.5 H 17999 L 16570.2,7645"
         style="fill:#00066e;fill-opacity:1;fill-rule:nonzero;stroke:none"
         id="path198" /><path
         d="m 10811.7,7371.1 c -86.5,30.8 -175.9,67.3 -233.8,138.5 -17.8,21.9 -31.8,46 -42.9,71.7 -30.6,21.7 -60.4,49.3 -89.5,83.2 -159.1,185 -285.3,538.8 -355.5,996.3 -60.2,392.8 -65,774.6 -38.6,948.9 3.3,21.7 6.5,44.5 9.8,68 15.5,109.9 47,333.6 111.8,377.7 4.7,14.4 10.2,28.5 17.5,41.9 36.8,67.9 107.1,117.7 146.4,181.6 -129.5,-34.5 -248.6,-69.1 -353.78,-103.3 -206.87,-67.4 -246.02,-211.7 -279.21,-447.7 -3.11,-22.1 -6.13,-43.6 -9.25,-64.1 -29.55,-195.1 -30.06,-609.3 38.69,-1057.6 56.78,-370.3 178.94,-875.1 438.55,-1177 150.6,-175.1 483,-133 685.6,-133 l 63,0.5 c -2.6,5.1 -5.5,10 -8.8,14.6 -23.1,32.1 -62.8,46.5 -100,59.8"
         style="fill:#f88bac;fill-opacity:1;fill-rule:nonzero;stroke:none"
         id="path200" /><path
         d="m 14470.7,10688.2 c -177.6,284.4 -469,180.4 -557,189.8 -293.3,31.3 -2380.9,-280.5 -3576.8,-599.1 -39.3,-63.9 -109.6,-113.7 -146.4,-181.6 -7.3,-13.4 -12.8,-27.5 -17.5,-41.9 2.8,2 5.7,3.7 8.7,4.9 966.5,394.8 3191.4,617.5 3628.6,617.5 24.1,0 42.7,-0.6 55.4,-2 97,-10.3 226.4,-62.7 298.9,-178.7 82.3,-131.8 78.7,-331 -10.4,-576 -128.3,-353 -276.4,-786.4 -407,-1168.8 -125.7,-367.9 -244.4,-715.5 -279.7,-794.7 -133.1,-298.9 -193.9,-435.3 -1064.9,-435.3 h -1690.8 c -62.6,0 -121,19.5 -176.8,59 11.1,-25.7 25.1,-49.8 42.9,-71.7 57.9,-71.2 147.3,-107.7 233.8,-138.5 37.2,-13.3 76.9,-27.7 100,-59.8 3.3,-4.6 6.2,-9.5 8.8,-14.6 l 1488.5,12.7 c 486.2,0 821.5,22.8 1023.9,124.2 237,118.8 279.1,186.1 364.2,377.2 40,89.6 132.1,358.1 291.6,824.9 130.1,380.8 277.5,812.5 404.6,1162.1 162.2,446.1 77.2,730.4 -22.6,890.4"
         style="fill:#030028;fill-opacity:1;fill-rule:nonzero;stroke:none"
         id="path202" /><path
         d="m 14037.9,10799.9 c -445.6,0 -2706.3,-225.6 -3686.6,-626 -136.1,-55.6 -169.1,-290.4 -195.6,-479.1 -3.3,-23 -6.4,-45.4 -9.7,-66.7 -58,-383.1 18.1,-1573.5 422.4,-2043.6 105.5,-122.7 226.4,-184.9 359.4,-184.9 h 1690.7 c 872.8,0 1009.4,131.7 1177,508.1 37.6,84.2 151.7,418.4 283.8,805.3 130.4,381.7 278.2,814.4 406.1,1166.2 103.9,285.7 103.6,515.5 -0.8,682.8 -95.8,153.5 -264.3,222.4 -390,235.8 -13,1.4 -32.1,2.1 -56.7,2.1 z M 12618.5,7284.2 h -1690.7 c -168.2,0 -318.6,75.7 -447,225 -240.6,279.9 -355.9,761.1 -410.3,1115.6 -66.8,435.6 -66.8,834.4 -38.6,1020.6 3.2,20.9 6.2,42.9 9.4,65.5 30.7,218 68.9,489.2 266.3,569.9 1075.5,439.3 3539,659.4 3799.2,631.8 152.8,-16.2 357.9,-100.8 475.7,-289.4 124.3,-199 128.1,-462.6 11.4,-783.5 -127.5,-350.7 -275.1,-782.8 -405.3,-1164.1 -138.5,-405.6 -248,-725.9 -287.6,-814.9 -182.5,-409.7 -349.6,-576.5 -1282.5,-576.5"
         style="fill:#cfc6ce;fill-opacity:1;fill-rule:nonzero;stroke:none"
         id="path204" /><path
         d="m 16121.3,10111.2 c 0,0 4260.2,-734.2 4733.9,-820.8 473.6,-86.6 1081.3,-664 575.4,-1501.1 -505.9,-837.1 -1910.8,-2828.8 -1910.8,-2828.8 h -1506 L 19404,7457.4 h -3165.6 -3011 l 1305.2,2063.9 1588.7,589.9"
         style="fill:#00066e;fill-opacity:1;fill-rule:nonzero;stroke:none"
         id="path206" /><path
         d="m 18228.9,7535.9 h -3990.2 v -244.2 h 3990.2 v 244.2"
         style="fill:#030028;fill-opacity:1;fill-rule:nonzero;stroke:none"
         id="path208" /><path
         d="m 11673.2,7341.9 353.6,-353.6 h 4279.4 l 351.5,351.6"
         style="fill:#030028;fill-opacity:1;fill-rule:nonzero;stroke:none"
         id="path210" /><path
         d="m 11903.5,16752.2 c 0,0 750,29.3 1204.6,-165.6 l 1405.5,-598.1 c 141.8,-60.3 271.1,-146.6 381.3,-254.4 l 1534.8,-1729 -1258.9,-1096.9 -372.4,318.1 c 0,0 -77.3,-2032.5 1322.9,-3115.1 C 14706.1,9377 13722.7,7645 13722.7,7645 l -3084.8,764.9 c 0,0 360.8,2915.5 86.6,3391.8 -274.3,476.3 -1125.38,2888.3 -389.7,3767 717.8,857.3 1258.1,1183.5 1568.7,1183.5"
         style="fill:#2030e0;fill-opacity:1;fill-rule:nonzero;stroke:none"
         id="path212" /><path
         d="m 14763.6,7341.9 c -588.5,283.9 -1328.7,911.5 -940.9,2735.1 118.2,555.6 -40.6,887.6 -242.6,1565.9 -202.1,678.4 -842.4,2696.7 -842.4,2696.7 l -3694.66,-272 c 0,0 570.1,-1746.3 772.16,-2424.7 202.1,-678.3 360.8,-1010.3 242.7,-1565.9 -387.87,-1823.6 352.3,-2451.2 940.8,-2735.1 h 3764.9"
         style="fill:#beb2bd;fill-opacity:1;fill-rule:nonzero;stroke:none"
         id="path214" /><path
         d="m 9281.18,14305.8 c 0,-131.5 -106.62,-238.2 -238.14,-238.2 -131.52,0 -238.14,106.7 -238.14,238.2 0,131.5 106.62,238.1 238.14,238.1 131.52,0 238.14,-106.6 238.14,-238.1"
         style="fill:#f0ebf1;fill-opacity:1;fill-rule:nonzero;stroke:none"
         id="path216" /><path
         d="M 12502,14067.6 H 9043.04 v 476.3 H 12502 v -476.3"
         style="fill:#f0ebf1;fill-opacity:1;fill-rule:nonzero;stroke:none"
         id="path218" /><path
         d="m 12740.1,14305.8 c 0,-131.5 -106.6,-238.2 -238.1,-238.2 -131.5,0 -238.2,106.7 -238.2,238.2 0,131.5 106.7,238.1 238.2,238.1 131.5,0 238.1,-106.6 238.1,-238.1"
         style="fill:#cfc6ce;fill-opacity:1;fill-rule:nonzero;stroke:none"
         id="path220" /><path
         d="m 12263.8,10026.5 h -1469.7 v 101 h 1469.7 v -101"
         style="fill:#cfc6ce;fill-opacity:1;fill-rule:nonzero;stroke:none"
         id="path222" /><path
         d="m 14522.8,19490.8 c -31,0 -62,4 -92.5,12.8 l 28.1,97.1 c 123.3,-35.6 274,42.3 359.1,137.8 77.9,87.4 106.2,217.6 77.8,357.3 -33,161.6 -135.2,304.1 -260.4,363.2 l 43.1,91.4 c 155.4,-73.3 276.6,-239.8 316.3,-434.4 34.9,-171.2 -2.1,-333.3 -101.3,-444.7 -84.6,-94.9 -227.1,-180.5 -370.2,-180.5"
         style="fill:#00066e;fill-opacity:1;fill-rule:nonzero;stroke:none"
         id="path224" /><path
         d="m 11934.2,20229.2 -60.1,81.3 c 596.1,440.4 1217.9,220.9 1394.3,143.1 l -40.7,-92.4 c -163.8,72.2 -741.3,276.1 -1293.5,-132"
         style="fill:#00066e;fill-opacity:1;fill-rule:nonzero;stroke:none"
         id="path226" /><path
         d="m 14647.5,7371.1 c -86.5,30.8 -175.9,67.3 -233.8,138.5 -17.8,21.9 -31.8,46 -42.9,71.7 -30.6,21.7 -60.4,49.3 -89.5,83.2 -159.1,185 -285.4,538.8 -355.5,996.3 -60.2,392.8 -65,774.6 -38.6,948.9 3.3,21.7 6.5,44.5 9.8,68 15.5,109.9 47,333.6 111.8,377.7 4.6,14.4 10.2,28.5 17.5,41.9 36.8,67.9 107.1,117.7 146.4,181.6 -129.5,-34.5 -248.6,-69.1 -353.8,-103.3 -206.9,-67.4 -246,-211.7 -279.2,-447.7 -3.1,-22.1 -6.1,-43.6 -9.2,-64.1 -29.6,-195.1 -30.1,-609.3 38.6,-1057.6 56.8,-370.3 179,-875.1 438.6,-1177 150.6,-175.1 483,-133 685.6,-133 l 63,0.5 c -2.6,5.1 -5.5,10 -8.8,14.6 -23.1,32.1 -62.9,46.5 -100,59.8"
         style="fill:#f88bac;fill-opacity:1;fill-rule:nonzero;stroke:none"
         id="path228" /><path
         d="m 18306.4,10688.2 c -177.5,284.4 -468.9,180.4 -556.9,189.8 -293.3,31.3 -2381,-280.5 -3576.8,-599.1 -39.3,-63.9 -109.6,-113.7 -146.4,-181.6 -7.3,-13.4 -12.9,-27.5 -17.5,-41.9 2.8,2 5.7,3.7 8.7,4.9 966.5,394.8 3191.4,617.5 3628.6,617.5 24.1,0 42.7,-0.6 55.4,-2 97,-10.3 226.4,-62.7 298.9,-178.7 82.3,-131.8 78.7,-331 -10.4,-576 -128.3,-353 -276.4,-786.4 -407,-1168.8 -125.7,-367.9 -244.4,-715.5 -279.7,-794.7 -133.1,-298.9 -193.9,-435.3 -1064.9,-435.3 h -1690.8 c -62.6,0 -121,19.5 -176.8,59 11.1,-25.7 25.1,-49.8 42.9,-71.7 57.9,-71.2 147.3,-107.7 233.8,-138.5 37.1,-13.3 76.9,-27.7 100,-59.8 3.3,-4.6 6.2,-9.5 8.8,-14.6 l 1488.5,12.7 c 486.2,0 821.5,22.8 1023.9,124.2 237,118.8 279.1,186.1 364.2,377.2 40,89.6 132.1,358.1 291.6,824.9 130,380.8 277.5,812.5 404.6,1162.1 162.2,446.1 77.2,730.4 -22.7,890.4"
         style="fill:#030028;fill-opacity:1;fill-rule:nonzero;stroke:none"
         id="path230" /><path
         d="m 17873.7,10799.9 c -445.6,0 -2706.3,-225.6 -3686.6,-626 -136.1,-55.6 -169.1,-290.4 -195.7,-479.2 -3.2,-23 -6.3,-45.3 -9.6,-66.6 -58,-383.1 18.1,-1573.5 422.4,-2043.6 105.4,-122.7 226.3,-184.9 359.3,-184.9 h 1690.8 c 872.8,0 1009.4,131.7 1177,508.1 37.6,84.2 151.7,418.4 283.8,805.3 130.4,381.7 278.2,814.4 406.1,1166.2 103.9,285.7 103.6,515.5 -0.8,682.8 -95.8,153.5 -264.3,222.4 -390,235.8 -13,1.4 -32.1,2.1 -56.7,2.1 z M 16454.3,7284.2 h -1690.8 c -168.1,0 -318.5,75.7 -446.9,225 -240.6,279.9 -355.9,761.1 -410.3,1115.6 -66.8,435.6 -66.8,834.4 -38.6,1020.6 3.1,20.9 6.2,42.8 9.4,65.4 30.7,218 68.8,489.3 266.3,570 1075.5,439.3 3538.9,659.4 3799.2,631.8 152.8,-16.2 357.9,-100.8 475.7,-289.4 124.2,-199 128.1,-462.6 11.4,-783.5 -127.5,-350.7 -275.1,-782.8 -405.3,-1164.1 -138.5,-405.6 -248,-725.9 -287.6,-814.9 -182.5,-409.7 -349.6,-576.5 -1282.5,-576.5"
         style="fill:#cfc6ce;fill-opacity:1;fill-rule:nonzero;stroke:none"
         id="path232" /><path
         d="m 25374.6,11651 188,1281.9 c 8.5,58 -36.4,110 -95,110 h -1149.4 c -58.6,0 -103.6,-52 -95.1,-110 l 188,-1281.9 c 4.4,-29.5 29.7,-51.4 59.5,-51.4 h 844.6 c 29.8,0 55.1,21.9 59.4,51.4"
         style="fill:#2030e0;fill-opacity:1;fill-rule:nonzero;stroke:none"
         id="path234" /><path
         d="m 25305.9,12012.1 v 115.5 c 158.3,0 397.7,266.9 416.7,529.8 4.5,63.7 -18.3,111.6 -67.9,142.3 -70.7,43.8 -183.3,44.2 -256.5,1.1 l -58.7,99.4 c 110.5,65.2 268.6,64.2 376,-2.4 86.5,-53.5 129.9,-141.9 122.2,-248.7 -21.8,-303.6 -300.1,-637 -531.8,-637"
         style="fill:#2030e0;fill-opacity:1;fill-rule:nonzero;stroke:none"
         id="path236" /><path
         d="m 25242.1,12001.3 v 115.5 c 70.7,0 162.4,62.9 239.3,164.2 85.1,112.1 137.5,248.8 143.7,375 3.6,74 -19.9,127.4 -68.1,154.5 -60.6,34 -150.9,23.2 -224.7,-27 l -64.9,95.5 c 110.8,75.3 246.7,88 346.1,32.2 87.7,-49.2 132.7,-141.8 126.9,-260.8 -15.5,-315.4 -271.6,-649.1 -498.3,-649.1"
         style="fill:#0461fc;fill-opacity:1;fill-rule:nonzero;stroke:none"
         id="path238" /><path
         d="m 14429.9,4960.5 h -588.2 v 2027.8 h 588.2 V 4960.5"
         style="fill:#030028;fill-opacity:1;fill-rule:nonzero;stroke:none"
         id="path240" /><path
         d="M 14819.6,7120.9 H 13452 c 0,-377.6 306.1,-683.8 683.8,-683.8 377.6,0 683.8,306.2 683.8,683.8"
         style="fill:#030028;fill-opacity:1;fill-rule:nonzero;stroke:none"
         id="path242" /><path
         d="m 14761.1,13192.2 -474.3,519 74.6,68.2 474.2,-519 -74.5,-68.2"
         style="fill:#00066e;fill-opacity:1;fill-rule:nonzero;stroke:none"
         id="path244" /><path
         d="m 23721.5,12388.5 h -1220.8 l 278.2,1308.8 h 1220.8 l -278.2,-1308.8"
         style="fill:#ffc842;fill-opacity:1;fill-rule:nonzero;stroke:none"
         id="path246" /><path
         d="m 23399.9,13410.9 h -519.6 v 101.1 h 519.6 v -101.1"
         style="fill:#ff8793;fill-opacity:1;fill-rule:nonzero;stroke:none"
         id="path248" /><path
         d="m 23583.8,13180 h -752.6 v 101 h 752.6 v -101"
         style="fill:#ff8793;fill-opacity:1;fill-rule:nonzero;stroke:none"
         id="path250" /><path
         d="m 23337.9,12689.3 h -611 v 101 h 611 v -101"
         style="fill:#ff8793;fill-opacity:1;fill-rule:nonzero;stroke:none"
         id="path252" /><path
         d="m 22993.8,12949.1 h -211.7 v 101 h 211.7 v -101"
         style="fill:#ff8793;fill-opacity:1;fill-rule:nonzero;stroke:none"
         id="path254" /><path
         d="m 23696.2,12949.1 h -606.1 v 101 h 606.1 v -101"
         style="fill:#ff8793;fill-opacity:1;fill-rule:nonzero;stroke:none"
         id="path256" /><path
         d="m 23741.1,13410.9 h -216.5 v 101.1 h 216.5 v -101.1"
         style="fill:#ff8793;fill-opacity:1;fill-rule:nonzero;stroke:none"
         id="path258" /><path
         d="m 19248.2,18116.9 h -2946.5 c -68.3,0 -111.8,55.3 -97.3,123.6 l 417.5,1964.1 c 14.5,68.3 81.6,123.7 149.9,123.7 h 2946.4 c 68.3,0 111.9,-55.4 97.4,-123.7 l -417.5,-1964.1 c -14.5,-68.3 -81.7,-123.6 -149.9,-123.6"
         style="fill:#f0ebf1;fill-opacity:1;fill-rule:nonzero;stroke:none"
         id="path260" /><path
         d="m 19297.1,18737.6 h -2786.6 l 296.2,1393.6 h 2786.7 l -296.3,-1393.6"
         style="fill:#ffffff;fill-opacity:1;fill-rule:nonzero;stroke:none"
         id="path262" /><path
         d="m 17363.6,19822.7 c -118.2,0 -234.9,-96.2 -260,-214.5 -25.2,-118.3 50.6,-214.5 168.8,-214.5 118.3,0 235,96.2 260.1,214.5 25.1,118.3 -50.6,214.5 -168.9,214.5 z m -110.8,-521.3 c -169.2,0 -277.5,137.6 -241.6,306.8 36,169.2 202.9,306.8 372,306.8 169.2,0 277.6,-137.6 241.6,-306.8 -35.9,-169.2 -202.8,-306.8 -372,-306.8"
         style="fill:#cfc6ce;fill-opacity:1;fill-rule:nonzero;stroke:none"
         id="path264" /><path
         d="m 17245.8,19268.4 33.7,158.3 c 100,0 198.8,81.4 220,181.5 21.3,100.1 -42.8,181.5 -142.9,181.5 l 33.7,158.3 c 187.3,0 307.4,-152.4 267.5,-339.8 -39.8,-187.4 -224.6,-339.8 -412,-339.8"
         style="fill:#ffc842;fill-opacity:1;fill-rule:nonzero;stroke:none"
         id="path266" /><path
         d="m 18192.1,19822.7 c -118.2,0 -234.9,-96.2 -260,-214.5 -8.6,-40.3 -5.7,-79.6 8.3,-113.6 26.1,-63.2 86.2,-100.9 160.6,-100.9 118.2,0 234.9,96.2 260,214.5 25.1,118.3 -50.6,214.5 -168.9,214.5 z m -110.8,-521.3 c -106.4,0 -192.2,53.9 -229.6,144.2 -20.1,48.7 -24.2,104.9 -12,162.6 36,169.2 202.9,306.8 372.1,306.8 169.1,0 277.5,-137.6 241.5,-306.8 -35.9,-169.2 -202.8,-306.8 -372,-306.8"
         style="fill:#cfc6ce;fill-opacity:1;fill-rule:nonzero;stroke:none"
         id="path268" /><path
         d="m 17820.1,19428.1 c -22.3,53.9 -26.9,116.2 -13.4,180.1 39.9,187.4 224.7,339.8 412.1,339.8 l -33.7,-158.3 c -100.1,0 -198.8,-81.4 -220.1,-181.5 -7.2,-34.1 -4.8,-67.4 7.1,-96.1 l -152,-84"
         style="fill:#f45183;fill-opacity:1;fill-rule:nonzero;stroke:none"
         id="path270" /><path
         d="m 19020.6,19822.7 c -118.3,0 -234.9,-96.2 -260,-214.5 -25.2,-118.3 50.6,-214.5 168.8,-214.5 118.3,0 235,96.2 260.1,214.5 25.1,118.3 -50.6,214.5 -168.9,214.5 z m -110.8,-521.3 c -169.2,0 -277.5,137.6 -241.6,306.8 36,169.2 202.9,306.8 372,306.8 169.2,0 277.6,-137.6 241.6,-306.8 -35.9,-169.2 -202.8,-306.8 -372,-306.8"
         style="fill:#cfc6ce;fill-opacity:1;fill-rule:nonzero;stroke:none"
         id="path272" /><path
         d="m 19168.2,19371.2 -90,110.4 c 40.4,34.1 68.2,79 78.3,126.6 21.3,100.1 -42.8,181.5 -142.9,181.5 l 33.6,158.3 c 187.4,0 307.4,-152.4 267.6,-339.8 -18.9,-89 -71,-173.2 -146.6,-237"
         style="fill:#8e7eff;fill-opacity:1;fill-rule:nonzero;stroke:none"
         id="path274" /><path
         d="m 16795.6,18453.8 c -14.4,-68 -81.2,-123.1 -149.2,-123.1 -68,0 -111.4,55.1 -97,123.1 14.5,68 81.3,123.1 149.3,123.1 68,0 111.4,-55.1 96.9,-123.1"
         style="fill:#ffc842;fill-opacity:1;fill-rule:nonzero;stroke:none"
         id="path276" /><path
         d="m 17114.6,18403.3 h -277.3 l 21.5,101 h 277.3 l -21.5,-101"
         style="fill:#cfc6ce;fill-opacity:1;fill-rule:nonzero;stroke:none"
         id="path278" /><path
         d="m 17641.3,18453.8 c -14.5,-68 -81.3,-123.1 -149.3,-123.1 -68,0 -111.4,55.1 -96.9,123.1 14.4,68 81.3,123.1 149.2,123.1 68,0 111.4,-55.1 97,-123.1"
         style="fill:#f45183;fill-opacity:1;fill-rule:nonzero;stroke:none"
         id="path280" /><path
         d="M 17960.2,18403.3 H 17683 l 21.4,101 h 277.3 l -21.5,-101"
         style="fill:#cfc6ce;fill-opacity:1;fill-rule:nonzero;stroke:none"
         id="path282" /><path
         d="m 18449.8,18453.8 c -14.4,-68 -81.3,-123.1 -149.2,-123.1 -68,0 -111.4,55.1 -97,123.1 14.5,68 81.3,123.1 149.3,123.1 68,0 111.4,-55.1 96.9,-123.1"
         style="fill:#8e7eff;fill-opacity:1;fill-rule:nonzero;stroke:none"
         id="path284" /><path
         d="m 18768.8,18403.3 h -277.3 l 21.5,101 h 277.2 l -21.4,-101"
         style="fill:#cfc6ce;fill-opacity:1;fill-rule:nonzero;stroke:none"
         id="path286" /><path
         d="m 18715.7,19075.8 h -2022 l 19.7,92.3 h 2021.9 l -19.6,-92.3"
         style="fill:#cfc6ce;fill-opacity:1;fill-rule:nonzero;stroke:none"
         id="path288" /><path
         d="m 18144.3,18870.3 h -1494.2 l 19.6,92.3 h 1494.2 l -19.6,-92.3"
         style="fill:#cfc6ce;fill-opacity:1;fill-rule:nonzero;stroke:none"
         id="path290" /><path
         d="m 19239,19075.8 h -388.8 l 19.7,92.3 h 388.7 l -19.6,-92.3"
         style="fill:#cfc6ce;fill-opacity:1;fill-rule:nonzero;stroke:none"
         id="path292" /><path
         d="m 31911.6,17166.4 c 143,140.5 248.7,319 290,513.5 96.2,452.6 -192.7,819.6 -645.4,819.6 -107.7,0 -215,-20.8 -317.3,-58.6 36.7,503.1 -312.9,890.3 -835.4,890.3 -571.5,0 -1133.3,-463.3 -1254.7,-1034.8 -11.1,-52.2 -18.2,-103.6 -21.3,-153.7 -67.3,29.2 -143.8,45.5 -227.7,45.5 -354.3,0 -702.5,-287.1 -777.8,-641.4 -30.2,-142.4 -11.7,-274 44.2,-380.4 h 3745.4"
         style="fill:#5d47ff;fill-opacity:1;fill-rule:nonzero;stroke:none"
         id="path294" /><path
         d="m 29488.2,13641.8 -130.7,-256.4 h 152.4 z m -215.9,-418 -96.2,-181.3 h -198.6 l 451.2,808.3 h 207.8 l 107.7,-808.3 h -198.7 l -19.2,181.3 h -254"
         style="fill:#000000;fill-opacity:1;fill-rule:nonzero;stroke:none"
         id="path296" /><path
         d="m 30077.2,13175.3 c 46.2,0 85.5,21.9 94,62.3 8.9,41.6 -22,64.7 -68.2,64.7 -46.2,0 -86.2,-25.4 -94.5,-64.7 -8.6,-40.4 23.6,-62.3 68.7,-62.3 z m 15.2,256.3 c 53.1,0 92,-12.7 112,-21.9 l 4.6,21.9 c 7.9,37 -16,65.8 -78.4,65.8 -53.1,0 -108.2,-15 -160.5,-38.1 l -44.1,129.4 c 73.8,42.7 162.6,75 263.1,75 209,0 239.3,-107.4 209.8,-245.9 l -79.7,-375.3 h -172.1 l -3.3,33.5 c -37.8,-31.2 -85.3,-48.5 -147.7,-48.5 -118.9,0 -209.9,71.6 -182,203.2 25.8,121.3 135.1,200.9 278.3,200.9"
         style="fill:#000000;fill-opacity:1;fill-rule:nonzero;stroke:none"
         id="path298" /><path
         d="m 15447.1,21422.2 536.2,219.3 -35.1,-165.1 -336.6,-122.3 284.5,-122.4 -35.3,-166.3 -442.9,219.4 29.2,137.4"
         style="fill:#000000;fill-opacity:1;fill-rule:nonzero;stroke:none"
         id="path300" /><path
         d="m 16052.1,20868 h -167.5 l 555.9,990.6 h 167.4 l -555.8,-990.6"
         style="fill:#000000;fill-opacity:1;fill-rule:nonzero;stroke:none"
         id="path302" /><path
         d="m 17041.3,21284.8 -536.2,-219.4 35.3,166.3 336.6,122.4 -284.6,122.3 35.1,165.1 443,-219.3 -29.2,-137.4"
         style="fill:#000000;fill-opacity:1;fill-rule:nonzero;stroke:none"
         id="path304" /><path
         d="m 26625.2,14055.6 -34.2,-160.5 c -12.5,-58.8 6,-96.9 81,-96.9 l -35.3,-166.3 c -200.9,0 -271,99.3 -235.5,266.7 l 25.6,120.1 c 17.4,82 -31.6,95.8 -62.8,95.8 l 38.8,182.5 c 31.2,0 86.1,13.8 103.5,95.8 l 25.5,120.1 c 35.6,167.4 147.9,266.7 348.8,266.7 l -35.3,-166.3 c -75,0 -109.7,-38.1 -122.2,-97 l -34.1,-160.5 c -22.4,-105 -107.2,-145.5 -131.2,-150.1 22.1,-4.6 89.7,-45 67.4,-150.1"
         style="fill:#f88bac;fill-opacity:1;fill-rule:nonzero;stroke:none"
         id="path306" /><path
         d="m 27488,14355.8 34.1,160.5 c 12.5,58.9 -6,97 -81,97 l 35.3,166.3 c 200.9,0 271,-99.3 235.5,-266.7 l -25.6,-120.1 c -17.4,-82 31.6,-95.8 62.8,-95.8 l -38.8,-182.5 c -31.1,0 -86.1,-13.8 -103.5,-95.8 l -25.5,-120.1 c -35.6,-167.4 -147.9,-266.7 -348.8,-266.7 l 35.3,166.3 c 75.1,0 109.7,38.1 122.2,96.9 l 34.2,160.5 c 22.3,105.1 107.1,145.5 131.2,150.1 -22.2,4.6 -89.8,45.1 -67.4,150.1"
         style="fill:#f88bac;fill-opacity:1;fill-rule:nonzero;stroke:none"
         id="path308" /><path
         d="m 17139.2,14888.1 h -616.1 c -234,0 -383.4,189.7 -333.6,423.7 l 130.9,616 c 49.8,234 279.8,423.7 513.8,423.7 h 616.1 c 234,0 383.4,-189.7 333.6,-423.7 l -130.9,-616 c -49.8,-234 -279.8,-423.7 -513.8,-423.7"
         style="fill:#5d47ff;fill-opacity:1;fill-rule:nonzero;stroke:none"
         id="path310" /><path
         d="m 16946.5,15430.7 c -104.4,0 -171.1,84.7 -148.9,189.1 22.2,104.4 124.9,189.1 229.3,189.1 104.4,0 171.1,-84.7 148.9,-189.1 -22.2,-104.4 -124.9,-189.1 -229.3,-189.1 z m 480.6,97.4 c 13.1,29.6 23.2,60.3 29.9,91.7 6.7,31.4 9.6,62.1 9,91.7 l -114.1,11 c -2.1,23.6 -6.7,46.2 -13.7,67.5 l 93.8,90.1 c -10.6,25.8 -24.5,50 -42.1,72.3 -17.5,22.2 -37.6,41.3 -60,57.4 l -106,-74.6 c -18.8,11.5 -39.4,20.9 -61.5,27.9 l 13.7,116.6 c -28.1,6.8 -58,10.4 -89.4,10.4 -31.5,0 -62.9,-3.6 -93.9,-10.4 l -35.8,-116.6 c -25.1,-7 -49.7,-16.4 -73.4,-27.9 l -74.4,74.6 c -29.1,-16.1 -57.4,-35.2 -84.4,-57.4 -26.9,-22.3 -51.2,-46.5 -72.8,-72.3 l 55.5,-90.1 c -16,-21.3 -30.2,-43.9 -42.3,-67.5 l -118.9,-11 c -13.1,-29.6 -23.2,-60.3 -29.9,-91.7 -6.7,-31.4 -9.6,-62.1 -9,-91.7 l 114.1,-11 c 2.1,-23.6 6.7,-46.2 13.6,-67.5 l -93.7,-90.2 c 10.6,-25.7 24.5,-49.9 42,-72.2 17.6,-22.2 37.7,-41.3 60.1,-57.4 l 106,74.6 c 18.8,-11.5 39.4,-20.9 61.5,-27.9 l -13.7,-116.6 c 28.1,-6.8 58,-10.4 89.4,-10.4 31.5,0 62.9,3.6 93.9,10.4 l 35.8,116.6 c 25.1,7 49.7,16.4 73.4,27.9 l 74.4,-74.6 c 29.1,16.1 57.4,35.2 84.4,57.4 26.9,22.3 51.2,46.5 72.7,72.2 l -55.4,90.2 c 16,21.3 30.2,43.9 42.3,67.5 l 118.9,11"
         style="fill:#ffffff;fill-opacity:1;fill-rule:nonzero;stroke:none"
         id="path312" /><path
         d="m 19951.5,21744.2 c -110.1,-518 -619.3,-937.9 -1137.2,-937.9 -518,0 -848.7,419.9 -738.6,937.9 110.1,518 619.3,937.9 1137.3,937.9 517.9,0 848.6,-419.9 738.5,-937.9"
         style="fill:#f45183;fill-opacity:1;fill-rule:nonzero;stroke:none"
         id="path314" /><path
         d="m 18776.6,21275.9 -328.3,416.9 198,163.2 199.7,-253.6 640.8,528.5 128.6,-163.3 -838.8,-691.7"
         style="fill:#ffffff;fill-opacity:1;fill-rule:nonzero;stroke:none"
         id="path316" /><path
         d="m 30062.9,17844.3 c 0,55.9 45.2,101 101.1,101 v 0 c 55.7,0 101,-45.1 101,-101 v 0 c 0,-55.7 -45.3,-101 -101,-101 v 0 c -55.9,0 -101.1,45.3 -101.1,101 z m 0,-505.1 c 0,55.8 45.2,101 101.1,101 v 0 c 55.7,0 101,-45.2 101,-101 v 0 c 0,-55.8 -45.3,-101.1 -101,-101.1 v 0 c -55.9,0 -101.1,45.3 -101.1,101.1 z m 0,-505.2 c 0,55.9 45.2,101 101.1,101 v 0 c 55.7,0 101,-45.1 101,-101 v 0 c 0,-55.7 -45.3,-101 -101,-101 v 0 c -55.9,0 -101.1,45.3 -101.1,101 z m 0,-505.1 c 0,55.8 45.2,101 101.1,101 v 0 c 55.7,0 101,-45.2 101,-101 v 0 c 0,-55.7 -45.3,-101.1 -101,-101.1 v 0 c -55.9,0 -101.1,45.4 -101.1,101.1 z m 0,-505.2 c 0,55.9 45.2,101 101.1,101 v 0 c 55.7,0 101,-45.1 101,-101 v 0 c 0,-55.7 -45.3,-101 -101,-101 v 0 c -55.9,0 -101.1,45.3 -101.1,101 z m -5297.1,-259.5 c 0,55.9 45.2,101 101,101 v 0 c 55.7,0 101,-45.1 101,-101 v 0 c 0,-55.9 -45.3,-101 -101,-101 v 0 c -55.8,0 -101,45.1 -101,101 z m 505.1,0 c 0,55.9 45.2,101 101.1,101 v 0 c 55.7,0 101,-45.1 101,-101 v 0 c 0,-55.9 -45.3,-101 -101,-101 v 0 c -55.9,0 -101.1,45.1 -101.1,101 z m 505.2,0 c 0,55.9 45.2,101 101,101 v 0 c 55.9,0 101,-45.1 101,-101 v 0 c 0,-55.9 -45.1,-101 -101,-101 v 0 c -55.8,0 -101,45.1 -101,101 z m 505.1,0 c 0,55.9 45.2,101 101.1,101 v 0 c 55.7,0 101,-45.1 101,-101 v 0 c 0,-55.9 -45.3,-101 -101,-101 v 0 c -55.9,0 -101.1,45.1 -101.1,101 z m 505.2,0 c 0,55.9 45.2,101 101,101 v 0 c 55.7,0 101,-45.1 101,-101 v 0 c 0,-55.9 -45.3,-101 -101,-101 v 0 c -55.8,0 -101,45.1 -101,101 z m 505.1,0 c 0,55.9 45.2,101 101.1,101 v 0 c 55.7,0 101,-45.1 101,-101 v 0 c 0,-55.9 -45.3,-101 -101,-101 v 0 c -55.9,0 -101.1,45.1 -101.1,101 z m 505.2,0 c 0,55.9 45.2,101 101,101 v 0 c 55.9,0 101,-45.1 101,-101 v 0 c 0,-55.9 -45.1,-101 -101,-101 v 0 c -55.8,0 -101,45.1 -101,101 z m 505.1,0 c 0,55.9 45.2,101 101.1,101 v 0 c 55.7,0 101,-45.1 101,-101 v 0 c 0,-55.9 -45.3,-101 -101,-101 v 0 c -55.9,0 -101.1,45.1 -101.1,101 z m 505.2,0 c 0,55.9 45.2,101 101,101 v 0 c 55.7,0 101,-45.1 101,-101 v 0 c 0,-55.9 -45.3,-101 -101,-101 v 0 c -55.8,0 -101,45.1 -101,101 z m 505.1,0 c 0,55.9 45.2,101 101.1,101 v 0 c 55.7,0 101,-45.1 101,-101 v 0 c 0,-55.9 -45.3,-101 -101,-101 v 0 c -55.9,0 -101.1,45.1 -101.1,101 z m 505.2,0 c 0,55.9 45.2,101 101,101 v 0 c 55.9,0 101.1,-45.1 101.1,-101 v 0 c 0,-55.9 -45.2,-101 -101.1,-101 v 0 c -55.8,0 -101,45.1 -101,101"
         style="fill:#fbb9cc;fill-opacity:1;fill-rule:nonzero;stroke:none"
         id="path318" /><path
         d="m 22586.4,15745.3 183.1,-283.2 c -77.3,-56.2 -169.5,-90.1 -262.5,-90.1 -206.2,0 -337.8,167.1 -294,373.3 43.9,206.2 246.6,373.4 452.8,373.4 0,0 -35.6,-167.2 -79.4,-373.4"
         style="fill:#fbb9cc;fill-opacity:1;fill-rule:nonzero;stroke:none"
         id="path320" /><path
         d="m 23060,15782.6 c -24,-113.2 -96,-214.7 -190.2,-283.1 l -183.1,283.1 79.3,373.4 c 206.2,0 337.9,-167.2 294,-373.4"
         style="fill:#f45183;fill-opacity:1;fill-rule:nonzero;stroke:none"
         id="path322" /><path
         d="m 22910.8,15113 h -825.3 l 21.5,101 h 825.3 l -21.5,-101"
         style="fill:#cfc6ce;fill-opacity:1;fill-rule:nonzero;stroke:none"
         id="path324" /><path
         d="m 22685.5,14898.6 h -465.7 l 21.4,101.1 h 465.7 l -21.4,-101.1"
         style="fill:#cfc6ce;fill-opacity:1;fill-rule:nonzero;stroke:none"
         id="path326" /><path
         d="m 24667.4,16378.7 107.7,-357.7 h 211.9 l -288,-101.1 -31.6,458.8"
         style="fill:#f0ebf1;fill-opacity:1;fill-rule:nonzero;stroke:none"
         id="path328" /><path
         d="m 24560.4,16068.1 h -764.8 l 21.4,101.1 h 764.9 l -21.5,-101.1"
         style="fill:#f0ebf1;fill-opacity:1;fill-rule:nonzero;stroke:none"
         id="path330" /><path
         d="M 24326.3,15825.4 H 23744 l 21.4,101.1 h 582.4 l -21.5,-101.1"
         style="fill:#f0ebf1;fill-opacity:1;fill-rule:nonzero;stroke:none"
         id="path332" /><path
         d="m 24646,15825.4 h -228.5 l 21.4,101.1 h 228.5 l -21.4,-101.1"
         style="fill:#f0ebf1;fill-opacity:1;fill-rule:nonzero;stroke:none"
         id="path334" /><path
         d="m 23864.3,15582.7 h -171.9 l 21.5,101.1 h 171.8 l -21.4,-101.1"
         style="fill:#f0ebf1;fill-opacity:1;fill-rule:nonzero;stroke:none"
         id="path336" /><path
         d="m 24484.2,15582.7 h -561.8 l 21.5,101.1 h 561.7 l -21.4,-101.1"
         style="fill:#f0ebf1;fill-opacity:1;fill-rule:nonzero;stroke:none"
         id="path338" /><path
         d="m 24571.2,15340 h -930.4 l 21.5,101 h 930.3 l -21.4,-101"
         style="fill:#f0ebf1;fill-opacity:1;fill-rule:nonzero;stroke:none"
         id="path340" /><path
         d="m 23954,15097.3 h -364.8 l 21.5,101 h 364.8 l -21.5,-101"
         style="fill:#f0ebf1;fill-opacity:1;fill-rule:nonzero;stroke:none"
         id="path342" /><path
         d="m 24597.2,15097.3 h -585.5 l 21.5,101 h 585.5 l -21.5,-101"
         style="fill:#f0ebf1;fill-opacity:1;fill-rule:nonzero;stroke:none"
         id="path344" /><path
         d="m 24212.4,14854.6 h -674.8 l 21.5,101 h 674.8 l -21.5,-101"
         style="fill:#f0ebf1;fill-opacity:1;fill-rule:nonzero;stroke:none"
         id="path346" /></g></g></svg>
